<mxfile host="app.diagrams.net" modified="2022-11-27T19:25:16.232Z" agent="5.0 (Windows NT 10.0; Win64; x64) AppleWebKit/537.36 (KHTML, like Gecko) Chrome/106.0.0.0 Safari/537.36 OPR/92.0.0.0" etag="xmX8fsDnqBpQEHhBHv4H" version="20.5.3" type="github">
  <diagram id="CgqiABCpOC7M-J2Pxthg" name="Страница 1">
    <mxGraphModel dx="1532" dy="617" grid="1" gridSize="10" guides="1" tooltips="1" connect="1" arrows="1" fold="1" page="1" pageScale="1" pageWidth="827" pageHeight="1169" math="0" shadow="0">
      <root>
        <mxCell id="0" />
        <mxCell id="1" parent="0" />
        <mxCell id="cvOGV6wrSn4lXoXijDoE-1" value="" style="rounded=0;whiteSpace=wrap;html=1;" vertex="1" parent="1">
          <mxGeometry x="120" y="240" width="60" height="60" as="geometry" />
        </mxCell>
        <mxCell id="cvOGV6wrSn4lXoXijDoE-2" value="" style="rounded=0;whiteSpace=wrap;html=1;fillColor=#f8cecc;strokeColor=#b85450;" vertex="1" parent="1">
          <mxGeometry x="190" y="240" width="60" height="120" as="geometry" />
        </mxCell>
        <mxCell id="cvOGV6wrSn4lXoXijDoE-3" value="" style="rounded=0;whiteSpace=wrap;html=1;fillColor=#f8cecc;strokeColor=#b85450;rotation=90;" vertex="1" parent="1">
          <mxGeometry x="198.3" y="210.94" width="60" height="378.12" as="geometry" />
        </mxCell>
        <mxCell id="cvOGV6wrSn4lXoXijDoE-4" value="" style="rounded=0;whiteSpace=wrap;html=1;fillColor=#f8cecc;strokeColor=#b85450;" vertex="1" parent="1">
          <mxGeometry x="190" y="40" width="60" height="190" as="geometry" />
        </mxCell>
        <mxCell id="cvOGV6wrSn4lXoXijDoE-5" value="" style="rounded=0;whiteSpace=wrap;html=1;fillColor=#f8cecc;strokeColor=#b85450;rotation=90;" vertex="1" parent="1">
          <mxGeometry x="342.75" y="-45.75" width="60" height="230.5" as="geometry" />
        </mxCell>
        <mxCell id="cvOGV6wrSn4lXoXijDoE-6" value="" style="rounded=0;whiteSpace=wrap;html=1;fillColor=#fff2cc;strokeColor=#d6b656;" vertex="1" parent="1">
          <mxGeometry x="40" y="440" width="80" height="80" as="geometry" />
        </mxCell>
        <mxCell id="cvOGV6wrSn4lXoXijDoE-7" value="" style="rounded=0;whiteSpace=wrap;html=1;fillColor=#fff2cc;strokeColor=#d6b656;" vertex="1" parent="1">
          <mxGeometry x="140" y="440" width="80" height="80" as="geometry" />
        </mxCell>
        <mxCell id="cvOGV6wrSn4lXoXijDoE-8" value="" style="rounded=0;whiteSpace=wrap;html=1;fillColor=#fff2cc;strokeColor=#d6b656;" vertex="1" parent="1">
          <mxGeometry x="240" y="440" width="80" height="80" as="geometry" />
        </mxCell>
        <mxCell id="cvOGV6wrSn4lXoXijDoE-9" value="" style="rounded=0;whiteSpace=wrap;html=1;fillColor=#fff2cc;strokeColor=#d6b656;" vertex="1" parent="1">
          <mxGeometry x="338.5" y="440" width="80" height="80" as="geometry" />
        </mxCell>
        <mxCell id="cvOGV6wrSn4lXoXijDoE-10" value="" style="rounded=0;whiteSpace=wrap;html=1;fillColor=#f8cecc;strokeColor=#b85450;" vertex="1" parent="1">
          <mxGeometry x="427" y="200" width="60" height="229" as="geometry" />
        </mxCell>
        <mxCell id="cvOGV6wrSn4lXoXijDoE-11" value="" style="rounded=0;whiteSpace=wrap;html=1;fillColor=#e1d5e7;strokeColor=#9673a6;" vertex="1" parent="1">
          <mxGeometry x="280" y="201" width="138.5" height="149" as="geometry" />
        </mxCell>
        <mxCell id="cvOGV6wrSn4lXoXijDoE-12" value="" style="rounded=0;whiteSpace=wrap;html=1;fillColor=#fff2cc;strokeColor=#d6b656;" vertex="1" parent="1">
          <mxGeometry x="360" y="106" width="127" height="84" as="geometry" />
        </mxCell>
        <mxCell id="cvOGV6wrSn4lXoXijDoE-13" value="" style="rounded=0;whiteSpace=wrap;html=1;fillColor=#f8cecc;strokeColor=#b85450;rotation=90;" vertex="1" parent="1">
          <mxGeometry x="580" y="-45.75" width="60" height="230.5" as="geometry" />
        </mxCell>
        <mxCell id="cvOGV6wrSn4lXoXijDoE-14" value="" style="rounded=0;whiteSpace=wrap;html=1;fillColor=#f8cecc;strokeColor=#b85450;rotation=90;" vertex="1" parent="1">
          <mxGeometry x="580" y="284.75" width="60" height="230.5" as="geometry" />
        </mxCell>
        <mxCell id="cvOGV6wrSn4lXoXijDoE-15" value="" style="rounded=0;whiteSpace=wrap;html=1;fillColor=#f5f5f5;strokeColor=#666666;fontColor=#333333;" vertex="1" parent="1">
          <mxGeometry x="733" y="39" width="60" height="120" as="geometry" />
        </mxCell>
        <mxCell id="cvOGV6wrSn4lXoXijDoE-16" value="" style="rounded=0;whiteSpace=wrap;html=1;fillColor=#f5f5f5;strokeColor=#666666;fontColor=#333333;" vertex="1" parent="1">
          <mxGeometry x="732" y="310" width="60" height="119.75" as="geometry" />
        </mxCell>
        <mxCell id="cvOGV6wrSn4lXoXijDoE-17" value="" style="rounded=0;whiteSpace=wrap;html=1;fillColor=#f5f5f5;strokeColor=#666666;fontColor=#333333;" vertex="1" parent="1">
          <mxGeometry x="732" y="241" width="210" height="60" as="geometry" />
        </mxCell>
        <mxCell id="cvOGV6wrSn4lXoXijDoE-18" value="" style="rounded=0;whiteSpace=wrap;html=1;fillColor=#f5f5f5;strokeColor=#666666;fontColor=#333333;" vertex="1" parent="1">
          <mxGeometry x="800" y="99" width="210" height="60" as="geometry" />
        </mxCell>
        <mxCell id="cvOGV6wrSn4lXoXijDoE-19" value="" style="rounded=0;whiteSpace=wrap;html=1;fillColor=#f5f5f5;strokeColor=#666666;fontColor=#333333;" vertex="1" parent="1">
          <mxGeometry x="800" y="167.75" width="60" height="65.25" as="geometry" />
        </mxCell>
        <mxCell id="cvOGV6wrSn4lXoXijDoE-20" value="" style="rounded=0;whiteSpace=wrap;html=1;fillColor=#f5f5f5;strokeColor=#666666;fontColor=#333333;" vertex="1" parent="1">
          <mxGeometry x="950" y="164.75" width="60" height="135.25" as="geometry" />
        </mxCell>
        <mxCell id="cvOGV6wrSn4lXoXijDoE-21" value="" style="rounded=0;whiteSpace=wrap;html=1;fillColor=#f5f5f5;strokeColor=#666666;fontColor=#333333;" vertex="1" parent="1">
          <mxGeometry x="882" y="309.75" width="60" height="90.25" as="geometry" />
        </mxCell>
        <mxCell id="cvOGV6wrSn4lXoXijDoE-22" value="" style="rounded=0;whiteSpace=wrap;html=1;fillColor=#f5f5f5;fontColor=#333333;strokeColor=#666666;" vertex="1" parent="1">
          <mxGeometry x="950" y="340" width="130" height="60" as="geometry" />
        </mxCell>
        <mxCell id="cvOGV6wrSn4lXoXijDoE-23" value="" style="rounded=0;whiteSpace=wrap;html=1;" vertex="1" parent="1">
          <mxGeometry x="1090" y="300" width="130" height="137.5" as="geometry" />
        </mxCell>
        <mxCell id="cvOGV6wrSn4lXoXijDoE-24" value="" style="rounded=0;whiteSpace=wrap;html=1;fillColor=#d5e8d4;strokeColor=#82b366;" vertex="1" parent="1">
          <mxGeometry x="1020" y="99.5" width="60" height="60.5" as="geometry" />
        </mxCell>
        <mxCell id="cvOGV6wrSn4lXoXijDoE-25" value="" style="rounded=0;whiteSpace=wrap;html=1;fillColor=#d5e8d4;strokeColor=#82b366;" vertex="1" parent="1">
          <mxGeometry x="882" y="410" width="60" height="60.5" as="geometry" />
        </mxCell>
      </root>
    </mxGraphModel>
  </diagram>
</mxfile>
